<?xml version="1.0" encoding="UTF-8" standalone="no"?>
<!-- Created with Inkscape (http://www.inkscape.org/) -->

<svg
   version="1.1"
   id="svg2"
   width="1133.8586"
   height="1133.8586"
   viewBox="0 0 1133.8586 1133.8586"
   sodipodi:docname="Logo.ai"
   xmlns:inkscape="http://www.inkscape.org/namespaces/inkscape"
   xmlns:sodipodi="http://sodipodi.sourceforge.net/DTD/sodipodi-0.dtd"
   xmlns="http://www.w3.org/2000/svg"
   xmlns:svg="http://www.w3.org/2000/svg">
  <defs
     id="defs6">
    <clipPath
       clipPathUnits="userSpaceOnUse"
       id="clipPath16">
      <path
         d="M 0,850.394 H 850.394 V 0 H 0 Z"
         id="path14" />
    </clipPath>
  </defs>
  <sodipodi:namedview
     id="namedview4"
     pagecolor="#ffffff"
     bordercolor="#000000"
     borderopacity="0.25"
     inkscape:showpageshadow="2"
     inkscape:pageopacity="0.0"
     inkscape:pagecheckerboard="0"
     inkscape:deskcolor="#d1d1d1" />
  <g
     id="g8"
     inkscape:groupmode="layer"
     inkscape:label="Logo"
     transform="matrix(1.3333333,0,0,-1.3333333,0,1133.8587)">
    <g
       id="g10">
      <g
         id="g12"
         clip-path="url(#clipPath16)">
        <g
           id="g18"
           transform="translate(530.3502,580.7374)">
          <path
             d="m 0,0 c -1.189,5.727 -2.857,11.352 -4.977,16.803 1.188,-3.051 2.509,-6.445 -0.009,0.025 -2.001,5.139 -1.067,2.741 -0.011,0.026 -7.805,20.033 -21.773,37.466 -39.582,49.502 -17.613,11.904 -38.626,18.222 -59.877,18.127 -22.85,-0.103 -45.334,-7.694 -63.554,-21.492 -15.974,-12.097 -28.37,-28.707 -35.395,-47.473 -8.06,-21.528 -8.857,-45.608 -2.25,-67.625 6.152,-20.501 18.571,-38.914 35.245,-52.328 15.88,-12.774 35.376,-20.779 55.655,-22.832 21.627,-2.189 43.694,2.333 62.648,12.982 18.352,10.311 33.481,26.037 42.978,44.833 C 1.63,-48.158 4.846,-23.352 0,0"
             style="fill:#ffffff;fill-opacity:1;fill-rule:nonzero;stroke:none"
             id="path20" />
        </g>
        <g
           id="g22"
           transform="translate(644.435,399.2602)">
          <path
             d="m 0,0 v 86.184 c 0,4.761 -3.189,8.932 -7.784,10.18 -5.331,1.447 -10.872,2.885 -16.548,4.293 -5.15,51.672 -19.674,84.846 -20.319,86.297 -1.745,3.928 -5.599,6.269 -9.645,6.269 -1.387,0 -2.796,-0.276 -4.151,-0.857 -0.824,-0.353 -83.286,-35.308 -158.49,-35.308 -75.357,0 -159.019,34.977 -159.855,35.33 -1.339,0.566 -2.731,0.834 -4.1,0.835 -4.047,0 -7.9,-2.342 -9.645,-6.269 -0.645,-1.451 -15.168,-34.624 -20.318,-86.295 -5.676,-1.409 -11.218,-2.847 -16.55,-4.296 -4.594,-1.248 -7.782,-5.418 -7.782,-10.179 V 3.873 c 0,-1.354 -0.104,-2.95 -0.055,-4.538 0.121,-3.946 1.617,-7.493 5.179,-9.195 l 32.624,-15.584 c 11.328,-32.677 34.538,-79.477 81.598,-124.609 29.982,-28.754 65.592,-52.449 95.256,-63.384 1.177,-0.434 2.413,-0.651 3.648,-0.651 1.236,0 2.471,0.217 3.649,0.651 29.639,10.926 65.155,34.698 95.005,63.591 26.292,25.45 61.348,67.58 80.881,124.985 L -5.996,-9.86 c 3.561,1.701 5.875,5.249 5.997,9.194 C 0.007,-0.443 0.007,-0.221 0,0"
             style="fill:#ffffff;fill-opacity:1;fill-rule:nonzero;stroke:none"
             id="path24" />
        </g>
        <g
           id="g26"
           transform="translate(427.0621,195.7209)">
          <path
             d="m 0,0 c -60.705,22.377 -185.159,118.196 -185.159,268.535 0,70.015 21.199,117.676 21.199,117.676 0,0 85.594,-36.162 163.96,-36.162 78.366,0 162.646,36.162 162.646,36.162 0,0 21.199,-47.661 21.199,-117.676 C 183.845,118.196 60.704,22.377 0,0"
             style="fill:#1b3281;fill-opacity:1;fill-rule:nonzero;stroke:none"
             id="path28" />
        </g>
        <g
           id="g30"
           transform="translate(427.0603,209.3054)">
          <path
             d="m 0,0 c -27.123,11.119 -69.337,38.106 -105.696,80.894 -30.475,35.862 -66.803,95.172 -66.803,174.056 0,47.111 9.973,83.685 15.872,101.195 26.911,-10.09 93.417,-32.339 156.629,-32.339 63.058,0 128.602,22.136 155.312,32.274 5.898,-17.597 15.874,-54.285 15.874,-101.13 0,-78.972 -35.989,-138.264 -66.179,-174.098 C 68.923,38.024 26.975,11.076 0,0"
             style="fill:#f2f2f2;fill-opacity:1;fill-rule:nonzero;stroke:none"
             id="path32" />
        </g>
        <g
           id="g34"
           transform="translate(427.0582,216.1723)">
          <path
             d="m 0,0 c -26.748,11.525 -66.533,37.717 -100.871,78.125 -29.788,35.055 -65.296,92.995 -65.296,169.958 0,41.189 7.754,74.125 13.547,92.98 29.701,-10.7 92.665,-30.453 152.624,-30.453 59.815,0 121.958,19.67 151.307,30.362 5.795,-18.939 13.55,-51.94 13.55,-92.889 0,-77.062 -35.179,-134.992 -64.69,-170.02 C 66.107,37.637 26.589,11.484 0,0"
             style="fill:#1b3281;fill-opacity:1;fill-rule:nonzero;stroke:none"
             id="path36" />
        </g>
        <g
           id="g38"
           transform="translate(427.0624,526.7823)">
          <path
             d="m 0,0 c 59.815,0 121.958,19.67 151.306,30.362 5.796,-18.939 13.551,-51.94 13.551,-92.889 0,-77.062 -35.179,-134.992 -64.69,-170.02 -34.064,-40.426 -73.582,-66.579 -100.171,-78.063 z"
             style="fill:#1b3281;fill-opacity:1;fill-rule:nonzero;stroke:none"
             id="path40" />
        </g>
        <g
           id="g42"
           transform="translate(518.6577,559.3207)">
          <path
             d="m 0,0 c 0,50.726 -41.122,91.848 -91.848,91.848 -50.726,0 -91.848,-41.122 -91.848,-91.848 0,-50.726 41.122,-91.848 91.848,-91.848 C -41.122,-91.848 0,-50.726 0,0"
             style="fill:#1b3281;fill-opacity:1;fill-rule:nonzero;stroke:none"
             id="path44" />
        </g>
        <g
           id="g46"
           transform="translate(379.9069,541.6545)">
          <path
             d="m 0,0 c 3.742,4.393 6.819,9.371 8.876,14.772 0.503,1.318 0.259,0.983 1.419,1.114 0.993,0.113 2.361,-0.373 3.36,-0.522 2.099,-0.312 4.202,-0.599 6.307,-0.86 4.261,-0.527 8.534,-0.951 12.815,-1.274 -2.643,-27.816 -2.344,-56.077 1.899,-83.721 -29.109,4.018 -54.905,22.825 -67.798,49.207 C -12.001,-14.253 -8.639,-10.142 0,0 m 104.253,73.672 c 1.275,0.797 2.572,1.557 3.888,2.284 0.77,0.426 3.239,2.27 4.075,2.112 0.798,-0.151 2.206,-2.467 2.771,-3.138 1.26,-1.495 2.472,-3.032 3.632,-4.606 3.663,-4.974 6.811,-10.326 9.369,-15.949 2.719,-5.976 4.771,-12.256 6.097,-18.687 0.228,-1.104 0.83,-2.708 0.699,-3.83 -0.149,-1.276 0.554,-0.499 -0.684,-1.349 -0.626,-0.431 -1.823,-0.614 -2.547,-0.85 -3.467,-1.13 -6.964,-2.165 -10.485,-3.111 -15.813,-4.249 -32.083,-6.781 -48.414,-7.867 -1.562,23.854 12.805,43.243 31.599,54.991 M 93.116,93.721 C 98.472,90.454 103.468,86.604 108.024,82.293 84.215,70.132 65.192,46.188 66.985,18.367 c -9.324,-0.416 -18.671,-0.395 -27.989,0.13 1.946,17.539 5.113,34.959 9.652,52.014 2.155,8.101 4.621,16.119 7.439,24.014 0.647,1.813 1.313,3.619 1.998,5.418 0.313,0.822 0.63,1.644 0.952,2.463 0.224,0.573 0.772,2.909 1.298,3.247 0.853,0.548 4.753,-0.848 5.835,-1.088 2.076,-0.462 4.13,-0.997 6.168,-1.603 7.281,-2.165 14.289,-5.296 20.778,-9.241 5.374,-3.278 -0.097,0.059 0,0 m 42.651,-70.986 c 1.035,-18.552 -3.779,-37.144 -13.787,-52.813 -0.541,-0.847 -1.097,-1.685 -1.667,-2.513 -0.974,-1.419 -0.808,-1.69 -2.404,-1.368 -2.141,0.432 -4.396,1.613 -6.39,2.486 -3.792,1.658 -7.461,3.603 -10.94,5.844 -6.61,4.256 -12.547,9.593 -17.247,15.909 -5,6.718 -8.515,14.521 -9.984,22.779 21.103,1.429 42.179,5.214 62.231,12.018 0.065,-0.78 0.144,-1.559 0.188,-2.342 0.094,-1.681 -0.032,0.573 0,0 M 54.513,106.318 C 47.725,89.385 42.644,71.78 38.912,53.931 36.958,44.589 35.381,35.169 34.161,25.703 c -0.168,-1.301 -0.328,-2.602 -0.482,-3.904 -0.042,-0.352 -0.098,-2.702 -0.336,-2.937 -0.347,-0.343 -3.419,0.278 -3.968,0.328 -1.317,0.118 -2.633,0.247 -3.948,0.385 -4.87,0.513 -9.726,1.162 -14.559,1.954 4.973,23.441 -9.702,44.82 -28.484,57.371 18.393,18.417 45.31,29.69 72.129,27.418 M 6.011,26.842 C 5.91,25.823 5.744,24.811 5.553,23.805 5.282,22.38 5.633,22.846 4.317,22.69 c -0.466,-0.056 -1.545,0.3 -1.932,0.377 -3.019,0.602 -6.026,1.261 -9.018,1.98 -5.491,1.32 -10.933,2.841 -16.303,4.588 -5.281,1.719 -10.491,3.657 -15.598,5.841 -1.539,0.659 -1.613,0.769 -1.237,2.406 0.319,1.387 0.67,2.764 1.064,4.131 0.654,2.273 1.385,4.526 2.216,6.74 1.747,4.657 3.874,9.157 6.367,13.461 1.148,1.982 2.373,3.917 3.672,5.805 0.601,0.874 1.215,1.739 1.846,2.594 0.687,0.93 1.861,3.133 2.857,3.641 0.9,0.459 1.529,-0.382 2.545,-1.095 0.954,-0.67 1.895,-1.36 2.818,-2.071 2.119,-1.633 4.153,-3.374 6.081,-5.229 3.502,-3.37 6.654,-7.122 9.254,-11.233 C 4.168,46.372 7.018,36.633 6.011,26.842 M -36.45,-13.554 C -41.715,0.434 -43.321,15.693 -41.179,30.482 -26.801,24.285 -11.652,19.956 3.717,17.046 0.701,8.953 -4.867,2.028 -11.515,-3.399 -15.113,-6.336 -19.044,-8.86 -23.165,-11 c -2.306,-1.197 -4.675,-2.274 -7.089,-3.236 -1.177,-0.47 -2.365,-0.914 -3.562,-1.33 -0.266,-0.092 -1.383,-0.651 -1.623,-0.546 -0.251,0.109 -0.911,2.293 -1.011,2.558 -0.101,0.268 0.324,-0.86 0,0 M 64.403,-69.615 c -7.051,-1.411 -14.3,-1.973 -21.484,-1.636 -0.449,0.021 -1.557,-0.114 -1.953,0.118 -0.763,0.446 -0.633,0.784 -0.795,1.853 -0.278,1.829 -0.537,3.661 -0.779,5.495 -0.491,3.733 -0.908,7.475 -1.256,11.224 -1.455,15.68 -1.723,31.467 -1,47.194 0.187,4.051 0.44,8.099 0.759,12.141 0.12,1.515 -0.052,3.614 0.435,5.075 0.481,1.441 0.425,0.993 2.041,0.911 1.309,-0.067 2.617,-0.126 3.926,-0.176 3.955,-0.151 7.913,-0.221 11.871,-0.189 1.585,0.014 3.17,0.042 4.755,0.083 1.042,0.027 6.094,0.878 6.751,0.248 0.54,-0.519 0.63,-3.262 0.821,-4.059 0.321,-1.336 0.691,-2.661 1.107,-3.971 0.832,-2.618 1.85,-5.175 3.04,-7.65 2.415,-5.023 5.535,-9.696 9.181,-13.908 8.918,-10.299 20.833,-17.704 33.625,-22.202 -12.926,-15.591 -31.151,-26.619 -51.045,-30.551 -1.116,-0.223 0.269,0.053 0,0 m 76.104,73.027 c 5.87,39.104 -13.779,78.912 -48.752,97.606 C 55.61,120.338 10.068,114.041 -19.302,85.292 -47.557,57.635 -55.88,13.705 -38.959,-22.274 c 15.533,-33.027 49.037,-54.178 85.422,-54.729 40.754,-0.617 78.239,27.12 90.606,65.684 1.542,4.81 2.68,9.738 3.438,14.731 0.203,1.353 -0.01,-0.066 0,0"
             style="fill:#ffffff;fill-opacity:1;fill-rule:nonzero;stroke:none"
             id="path48" />
        </g>
        <g
           id="g50"
           transform="translate(633.4503,485.4441)">
          <path
             d="m 0,0 v -86.265 c -134.936,41.329 -279.155,41.329 -414.091,0 V 0 C -278.522,36.835 -135.569,36.814 0,0"
             style="fill:#1b3281;fill-opacity:1;fill-rule:nonzero;stroke:none"
             id="path52" />
        </g>
        <g
           id="g54"
           transform="translate(633.4503,485.4441)">
          <path
             d="m 0,0 v -86.265 c -134.936,41.329 -279.155,41.329 -414.091,0 V 0 C -278.522,36.835 -135.569,36.814 0,0 Z"
             style="fill:none;stroke:#ffffff;stroke-width:2;stroke-linecap:butt;stroke-linejoin:miter;stroke-miterlimit:10;stroke-dasharray:none;stroke-opacity:1"
             id="path56" />
        </g>
        <g
           id="g58"
           transform="translate(633.4503,408.6301)">
          <path
             d="m 0,0 v -3.228 c -0.148,0 -0.296,0.021 -0.464,0.064 -135.147,41.392 -278.015,41.392 -413.162,0 -0.148,-0.043 -0.317,-0.064 -0.465,-0.064 V 0 C -278.627,41.392 -135.463,41.392 0,0"
             style="fill:#1b3281;fill-opacity:1;fill-rule:nonzero;stroke:none"
             id="path60" />
        </g>
        <g
           id="g62"
           transform="translate(633.4503,408.6301)">
          <path
             d="m 0,0 v -3.228 c -0.148,0 -0.296,0.021 -0.464,0.064 -135.147,41.392 -278.015,41.392 -413.162,0 -0.148,-0.043 -0.317,-0.064 -0.465,-0.064 V 0 C -278.627,41.392 -135.463,41.392 0,0 Z"
             style="fill:none;stroke:#ffffff;stroke-width:2;stroke-linecap:butt;stroke-linejoin:miter;stroke-miterlimit:10;stroke-dasharray:none;stroke-opacity:1"
             id="path64" />
        </g>
        <g
           id="g66"
           transform="translate(633.4503,476.4147)">
          <path
             d="m 0,0 v -3.249 c -0.148,0 -0.296,0.021 -0.464,0.084 -135.147,41.371 -278.015,41.371 -413.162,0 -0.148,-0.042 -0.317,-0.063 -0.465,-0.063 V 0 C -278.627,41.392 -135.463,41.392 0,0"
             style="fill:#1b3281;fill-opacity:1;fill-rule:nonzero;stroke:none"
             id="path68" />
        </g>
        <g
           id="g70"
           transform="translate(633.4503,476.4147)">
          <path
             d="m 0,0 v -3.249 c -0.148,0 -0.296,0.021 -0.464,0.084 -135.147,41.371 -278.015,41.371 -413.162,0 -0.148,-0.042 -0.317,-0.063 -0.465,-0.063 V 0 C -278.627,41.392 -135.463,41.392 0,0 Z"
             style="fill:none;stroke:#ffffff;stroke-width:2;stroke-linecap:butt;stroke-linejoin:miter;stroke-miterlimit:10;stroke-dasharray:none;stroke-opacity:1"
             id="path72" />
        </g>
        <g
           id="g74"
           transform="translate(377.2722,409.7594)">
          <path
             d="M 0,0 60.304,-0.187 15.123,-52.173 70.195,0.877 c 0.619,0.611 1.01,1.469 1.007,2.408 -0.005,1.854 -1.513,3.352 -3.367,3.347 L 67.695,6.631 -3.06,6.412 H -3.22 L -3.333,6.409 C -5.025,6.335 -6.336,4.903 -6.262,3.211 L -3.06,-69.48 Z"
             style="fill:#ffffff;fill-opacity:1;fill-rule:nonzero;stroke:none"
             id="path76" />
        </g>
        <g
           id="g78"
           transform="translate(479.4449,380.85)">
          <path
             d="m 0,0 -3.029,-69.975 -62.728,-0.59 47.801,51.592 -55.318,-52.39 c -0.461,-0.441 -0.757,-1.068 -0.763,-1.758 -0.014,-1.358 1.077,-2.469 2.436,-2.482 l 0.103,-0.001 71.498,-0.673 0.114,-0.001 0.151,0.002 c 1.674,0.074 2.973,1.49 2.9,3.165 z"
             style="fill:#ffffff;fill-opacity:1;fill-rule:nonzero;stroke:none"
             id="path80" />
        </g>
        <g
           id="g82"
           transform="translate(420.0653,363.2278)">
          <path
             d="m 0,0 c 2.833,3.007 5.666,6.015 8.455,8.976 2.755,2.992 5.466,5.938 8.09,8.788 2.592,2.881 5.098,5.665 7.475,8.305 2.38,2.636 4.566,5.191 6.619,7.516 8.163,9.343 13.329,15.837 13.329,15.837 0,0 -6.258,-5.449 -15.23,-14.02 -2.231,-2.154 -4.687,-4.45 -7.214,-6.945 C 18.992,25.965 16.322,23.338 13.559,20.62 10.829,17.872 8.006,15.033 5.139,12.147 2.305,9.23 -0.574,6.266 -3.453,3.302 c -2.89,-2.952 -5.726,-5.956 -8.509,-8.923 -2.796,-2.954 -5.54,-5.868 -8.137,-8.743 -5.249,-5.701 -10.051,-11.112 -14.107,-15.808 -4.067,-4.687 -7.38,-8.664 -9.661,-11.484 -2.29,-2.814 -3.553,-4.463 -3.553,-4.463 0,0 1.591,1.335 4.301,3.748 2.715,2.404 6.542,5.89 11.044,10.161 4.511,4.261 9.704,9.3 15.165,14.795 2.757,2.723 5.546,5.594 8.374,8.517 C -5.697,-5.986 -2.821,-3.019 0,0"
             style="fill:#ffffff;fill-opacity:1;fill-rule:nonzero;stroke:none"
             id="path84" />
        </g>
        <g
           id="g86"
           transform="translate(455.4927,387.4305)">
          <path
             d="m 0,0 c -2.905,-3.015 -5.73,-6.106 -8.317,-9.064 -1.303,-1.469 -2.503,-2.948 -3.663,-4.328 -1.17,-1.371 -2.219,-2.722 -3.195,-3.962 -1.957,-2.475 -3.503,-4.618 -4.566,-6.139 -1.063,-1.519 -1.627,-2.429 -1.627,-2.429 0,0 0.889,0.596 2.37,1.711 1.482,1.115 3.571,2.736 5.976,4.779 1.204,1.019 2.518,2.115 3.846,3.332 1.339,1.208 2.775,2.458 4.197,3.813 2.866,2.688 5.856,5.621 8.768,8.629 5.823,6.015 11.344,12.324 15.195,17.334 1.959,2.473 3.496,4.625 4.554,6.15 1.059,1.523 1.619,2.438 1.619,2.438 0,0 -0.895,-0.591 -2.38,-1.703 C 21.29,19.45 19.193,17.839 16.789,15.794 11.918,11.77 5.807,6.031 0,0"
             style="fill:#ffffff;fill-opacity:1;fill-rule:nonzero;stroke:none"
             id="path88" />
        </g>
        <g
           id="g90"
           transform="translate(277.7936,461.6256)">
          <path
             d="m 0,0 c -0.38,0.692 -0.874,1.415 -1.482,2.168 -0.609,0.753 -1.382,1.405 -2.322,1.957 -0.94,0.55 -2.049,0.926 -3.326,1.122 -1.278,0.195 -2.741,0.109 -4.383,-0.266 -1.98,-0.451 -3.591,-1.224 -4.828,-2.311 -1.238,-1.088 -2.161,-2.364 -2.769,-3.824 -0.608,-1.461 -0.931,-3.031 -0.97,-4.708 -0.039,-1.677 0.141,-3.32 0.535,-4.928 0.402,-1.645 1.004,-3.192 1.801,-4.646 0.796,-1.455 1.788,-2.696 2.972,-3.725 1.183,-1.03 2.546,-1.758 4.091,-2.189 1.544,-0.432 3.264,-0.428 5.17,0.007 1.294,0.295 2.478,0.782 3.555,1.464 1.076,0.682 1.983,1.497 2.722,2.451 0.739,0.952 1.266,2.023 1.581,3.214 0.314,1.19 0.335,2.436 0.058,3.739 -3.212,-0.684 -6.42,-1.39 -9.624,-2.119 -0.471,2.071 -0.943,4.142 -1.414,6.213 5.474,1.246 10.96,2.426 16.455,3.54 1.391,-6.862 2.783,-13.724 4.175,-20.587 -2.076,-0.42 -4.15,-0.851 -6.223,-1.291 -0.228,1.074 -0.456,2.148 -0.684,3.222 -0.497,-0.842 -1.091,-1.613 -1.783,-2.315 -0.691,-0.702 -1.447,-1.317 -2.265,-1.847 -0.82,-0.53 -1.663,-0.984 -2.533,-1.364 -0.869,-0.379 -1.713,-0.663 -2.532,-0.849 -3.062,-0.698 -5.84,-0.799 -8.354,-0.293 -2.514,0.506 -4.762,1.461 -6.75,2.877 -1.987,1.415 -3.664,3.207 -5.027,5.387 -1.363,2.178 -2.386,4.573 -3.057,7.188 -0.672,2.615 -0.883,5.219 -0.621,7.812 0.262,2.593 0.985,4.995 2.176,7.203 1.19,2.207 2.843,4.125 4.956,5.742 2.112,1.618 4.682,2.777 7.698,3.465 4.108,0.937 7.82,0.768 11.095,-0.486 C 1.369,9.768 4.141,7.468 6.405,4.145 4.259,2.773 2.124,1.391 0,0"
             style="fill:#ffffff;fill-opacity:1;fill-rule:nonzero;stroke:none"
             id="path92" />
        </g>
        <g
           id="g94"
           transform="translate(289.1249,477.2586)">
          <path
             d="m 0,0 c 2.535,0.488 5.073,0.963 7.612,1.425 1.892,-10.414 3.783,-20.828 5.675,-31.242 5.237,0.952 10.483,1.842 15.735,2.672 0.349,-2.204 0.697,-4.409 1.046,-6.613 C 22.453,-34.962 14.854,-36.294 7.273,-37.754 4.849,-25.169 2.424,-12.585 0,0"
             style="fill:#ffffff;fill-opacity:1;fill-rule:nonzero;stroke:none"
             id="path96" />
        </g>
        <g
           id="g98"
           transform="translate(332.8339,477.2278)">
          <path
             d="m 0,0 c -0.038,-0.005 -0.075,-0.01 -0.113,-0.015 -1.084,-6.061 -2.122,-12.124 -3.114,-18.187 3.643,0.508 7.289,0.988 10.938,1.439 C 5.185,-11.162 2.615,-5.575 0,0 m -5.431,6.352 c 2.972,0.41 5.945,0.801 8.92,1.174 6.132,-12.148 12.028,-24.369 17.688,-36.657 -2.533,-0.269 -5.065,-0.552 -7.596,-0.849 -1.031,2.38 -2.07,4.758 -3.116,7.134 -4.932,-0.595 -9.859,-1.243 -14.78,-1.945 -0.397,-2.565 -0.786,-5.131 -1.166,-7.697 -2.524,-0.368 -5.046,-0.75 -7.566,-1.146 2.295,13.334 4.833,26.665 7.616,39.986"
             style="fill:#ffffff;fill-opacity:1;fill-rule:nonzero;stroke:none"
             id="path100" />
        </g>
        <g
           id="g102"
           transform="translate(359.0276,460.223)">
          <path
             d="m 0,0 c 1.595,-1.871 3.446,-3.178 5.561,-3.928 2.115,-0.751 4.373,-1.026 6.785,-0.833 0.877,0.07 1.802,0.224 2.778,0.46 0.975,0.237 1.851,0.572 2.63,1.007 0.778,0.435 1.412,0.984 1.901,1.65 0.488,0.665 0.703,1.464 0.639,2.398 C 20.243,1.508 20.025,2.125 19.64,2.604 19.254,3.082 18.696,3.486 17.967,3.813 17.237,4.14 16.362,4.411 15.34,4.624 14.319,4.836 13.129,5.033 11.771,5.215 10.281,5.421 8.789,5.622 7.295,5.819 5.668,6.04 4.116,6.335 2.64,6.705 1.162,7.074 -0.165,7.607 -1.343,8.306 c -1.178,0.698 -2.156,1.612 -2.932,2.746 -0.777,1.133 -1.257,2.576 -1.438,4.331 -0.207,2.005 0.073,3.808 0.85,5.407 0.777,1.598 1.861,2.962 3.254,4.091 1.392,1.128 3.016,2.022 4.867,2.674 1.851,0.652 3.737,1.057 5.653,1.212 3.526,0.286 6.767,-0.1 9.701,-1.146 2.933,-1.046 5.546,-2.843 7.825,-5.38 -2.02,-1.631 -4.027,-3.27 -6.019,-4.917 -1.098,1.694 -2.582,2.966 -4.452,3.806 -1.871,0.839 -4.064,1.162 -6.571,0.959 C 7.193,21.91 5.391,21.383 3.998,20.519 2.604,19.654 1.974,18.537 2.1,17.176 c 0.072,-0.789 0.349,-1.424 0.828,-1.904 0.48,-0.481 1.121,-0.866 1.923,-1.156 0.801,-0.291 1.709,-0.51 2.723,-0.659 1.013,-0.149 2.093,-0.304 3.238,-0.464 1.658,-0.21 3.314,-0.426 4.968,-0.648 1.521,-0.214 2.991,-0.517 4.408,-0.908 1.415,-0.393 2.682,-0.961 3.795,-1.704 1.113,-0.743 2.031,-1.716 2.753,-2.918 0.722,-1.202 1.133,-2.72 1.237,-4.553 0.133,-2.338 -0.271,-4.342 -1.199,-6.02 -0.929,-1.678 -2.172,-3.061 -3.725,-4.153 -1.556,-1.094 -3.33,-1.926 -5.328,-2.505 -2,-0.579 -3.992,-0.95 -5.982,-1.112 -1.593,-0.131 -3.198,-0.095 -4.822,0.104 -1.623,0.2 -3.2,0.568 -4.734,1.11 -1.534,0.54 -2.988,1.247 -4.363,2.12 -1.376,0.873 -2.591,1.923 -3.645,3.15 C -3.898,-3.354 -1.956,-1.673 0,0"
             style="fill:#ffffff;fill-opacity:1;fill-rule:nonzero;stroke:none"
             id="path104" />
        </g>
        <g
           id="g106"
           transform="translate(394.8686,462.7798)">
          <path
             d="m 0,0 c 1.495,-1.951 3.276,-3.351 5.348,-4.208 2.072,-0.858 4.311,-1.249 6.728,-1.18 0.879,0.025 1.811,0.131 2.797,0.317 0.985,0.187 1.877,0.477 2.676,0.871 0.799,0.395 1.46,0.911 1.982,1.551 0.521,0.638 0.776,1.426 0.761,2.362 -0.013,0.756 -0.199,1.383 -0.559,1.881 -0.361,0.497 -0.896,0.929 -1.607,1.293 -0.712,0.364 -1.572,0.679 -2.581,0.944 -1.009,0.264 -2.186,0.523 -3.531,0.773 -1.477,0.283 -2.956,0.56 -4.437,0.834 -1.612,0.303 -3.146,0.677 -4.6,1.123 -1.455,0.444 -2.753,1.045 -3.892,1.803 -1.14,0.758 -2.069,1.721 -2.785,2.893 -0.717,1.171 -1.123,2.637 -1.213,4.399 -0.104,2.013 0.267,3.799 1.125,5.356 0.856,1.556 2.008,2.863 3.456,3.919 1.446,1.055 3.112,1.864 4.992,2.421 1.881,0.556 3.784,0.863 5.704,0.92 3.533,0.105 6.749,-0.446 9.624,-1.641 2.874,-1.195 5.391,-3.124 7.536,-5.774 -2.1,-1.525 -4.187,-3.059 -6.261,-4.602 -1.009,1.748 -2.425,3.094 -4.248,4.028 -1.825,0.935 -3.998,1.369 -6.51,1.295 C 8.298,21.512 6.474,21.079 5.039,20.287 3.604,19.495 2.918,18.411 2.974,17.045 c 0.032,-0.791 0.275,-1.439 0.729,-1.943 0.454,-0.505 1.074,-0.923 1.859,-1.253 0.785,-0.331 1.68,-0.597 2.684,-0.798 1.004,-0.201 2.074,-0.41 3.208,-0.629 1.644,-0.295 3.286,-0.596 4.926,-0.902 1.507,-0.291 2.958,-0.669 4.353,-1.133 1.392,-0.465 2.627,-1.097 3.7,-1.896 1.074,-0.798 1.94,-1.818 2.6,-3.055 0.659,-1.238 0.991,-2.775 1.002,-4.611 0.012,-2.341 -0.493,-4.322 -1.506,-5.95 -1.014,-1.628 -2.325,-2.946 -3.931,-3.957 -1.609,-1.013 -3.423,-1.753 -5.447,-2.229 -2.025,-0.475 -4.032,-0.744 -6.026,-0.804 -1.597,-0.049 -3.197,0.069 -4.807,0.351 -1.61,0.283 -3.165,0.732 -4.668,1.351 -1.503,0.619 -2.917,1.399 -4.244,2.342 -1.328,0.942 -2.487,2.053 -3.476,3.333 C -4.06,-3.15 -2.037,-1.571 0,0"
             style="fill:#ffffff;fill-opacity:1;fill-rule:nonzero;stroke:none"
             id="path108" />
        </g>
        <g
           id="g110"
           transform="translate(435.4199,458.2706)">
          <path
             d="m 0,0 c 3.19,-0.039 6.38,-0.101 9.57,-0.184 2.236,-0.059 3.998,0.271 5.291,1.003 1.293,0.73 1.979,2.1 2.053,4.115 0.079,2.159 -0.515,3.703 -1.786,4.629 -1.273,0.925 -3.048,1.423 -5.32,1.482 C 6.585,11.129 3.362,11.191 0.139,11.231 0.093,7.487 0.046,3.744 0,0 m 0.206,16.631 c 2.985,-0.037 5.97,-0.093 8.954,-0.168 0.825,-0.02 1.626,0.039 2.4,0.18 0.774,0.14 1.458,0.398 2.054,0.776 0.595,0.377 1.081,0.865 1.46,1.466 0.378,0.599 0.584,1.366 0.615,2.303 0.05,1.474 -0.42,2.662 -1.419,3.558 -0.997,0.896 -2.622,1.379 -4.867,1.435 -3.025,0.075 -6.051,0.132 -9.077,0.169 -0.04,-3.24 -0.08,-6.48 -0.12,-9.719 m -7.521,15.497 c 6.426,-0.011 12.852,-0.108 19.277,-0.289 1.687,-0.048 3.264,-0.297 4.725,-0.744 1.461,-0.448 2.721,-1.09 3.779,-1.925 1.058,-0.835 1.874,-1.87 2.448,-3.102 0.576,-1.233 0.826,-2.64 0.755,-4.222 -0.096,-2.123 -0.759,-3.822 -1.98,-5.103 -1.222,-1.282 -2.942,-2.075 -5.163,-2.393 -0.001,-0.036 -0.003,-0.072 -0.004,-0.108 1.379,-0.192 2.592,-0.6 3.634,-1.218 1.04,-0.619 1.906,-1.377 2.594,-2.272 0.688,-0.896 1.191,-1.892 1.512,-2.988 0.32,-1.096 0.452,-2.22 0.397,-3.371 C 24.544,1.984 24.046,0.052 23.173,-1.403 22.299,-2.858 21.152,-3.979 19.734,-4.767 18.314,-5.556 16.695,-6.061 14.868,-6.286 13.04,-6.512 11.129,-6.599 9.132,-6.547 3.628,-6.405 -1.878,-6.33 -7.383,-6.32 -7.36,6.496 -7.337,19.312 -7.315,32.128"
             style="fill:#ffffff;fill-opacity:1;fill-rule:nonzero;stroke:none"
             id="path112" />
        </g>
        <g
           id="g114"
           transform="translate(480.3749,481.3872)">
          <path
             d="M 0,0 C -0.038,0.003 -0.076,0.006 -0.114,0.009 -2.407,-5.705 -4.655,-11.429 -6.858,-17.164 -3.195,-17.408 0.468,-17.68 4.128,-17.982 2.798,-11.984 1.422,-5.99 0,0 m -4.017,7.324 c 2.988,-0.203 5.974,-0.426 8.959,-0.666 3.524,-13.142 6.805,-26.308 9.843,-39.49 -2.534,0.253 -5.07,0.491 -7.606,0.716 -0.524,2.54 -1.056,5.079 -1.596,7.618 -4.945,0.421 -9.894,0.79 -14.845,1.105 -0.91,-2.431 -1.811,-4.864 -2.705,-7.298 -2.541,0.153 -5.082,0.293 -7.623,0.418 4.952,12.587 10.143,25.122 15.573,37.597"
             style="fill:#ffffff;fill-opacity:1;fill-rule:nonzero;stroke:none"
             id="path116" />
        </g>
        <g
           id="g118"
           transform="translate(502.6394,486.4395)">
          <path
             d="M 0,0 C 2.56,-0.268 5.119,-0.55 7.677,-0.845 6.462,-11.36 5.248,-21.874 4.034,-32.388 c 5.275,-0.609 10.545,-1.279 15.809,-2.009 -0.307,-2.211 -0.614,-4.422 -0.92,-6.633 -7.631,1.059 -15.275,1.989 -22.929,2.791 C -2.67,-25.493 -1.335,-12.746 0,0"
             style="fill:#ffffff;fill-opacity:1;fill-rule:nonzero;stroke:none"
             id="path120" />
        </g>
        <g
           id="g122"
           transform="translate(533.848,475.7163)">
          <path
             d="m 0,0 c -3.675,0.552 -7.354,1.075 -11.035,1.569 0.297,2.212 0.594,4.425 0.891,6.637 C -0.16,6.865 9.803,5.316 19.739,3.558 19.35,1.36 18.961,-0.838 18.573,-3.036 14.909,-2.388 11.242,-1.768 7.571,-1.177 5.889,-11.627 4.207,-22.076 2.525,-32.526 0.114,-32.138 -2.299,-31.763 -4.713,-31.4 -3.142,-20.933 -1.571,-10.467 0,0"
             style="fill:#ffffff;fill-opacity:1;fill-rule:nonzero;stroke:none"
             id="path124" />
        </g>
        <g
           id="g126"
           transform="translate(558.0784,478.4654)">
          <path
             d="M 0,0 C 2.539,-0.465 5.076,-0.945 7.61,-1.437 5.165,-14.018 2.72,-26.599 0.274,-39.179 c -2.401,0.467 -4.803,0.92 -7.208,1.361 C -4.623,-25.212 -2.311,-12.606 0,0"
             style="fill:#ffffff;fill-opacity:1;fill-rule:nonzero;stroke:none"
             id="path128" />
        </g>
        <g
           id="g130"
           transform="translate(597.0428,456.9317)">
          <path
             d="M 0,0 C 0.109,1.085 0.02,2.117 -0.271,3.096 -0.562,4.074 -1.024,4.964 -1.656,5.765 -2.29,6.565 -3.07,7.252 -3.998,7.823 -4.925,8.394 -5.95,8.81 -7.069,9.07 c -1.979,0.459 -3.765,0.467 -5.351,0.03 -1.588,-0.438 -2.974,-1.183 -4.158,-2.231 -1.185,-1.05 -2.16,-2.321 -2.926,-3.812 -0.768,-1.492 -1.323,-3.048 -1.672,-4.667 -0.356,-1.655 -0.491,-3.31 -0.41,-4.966 0.08,-1.656 0.43,-3.206 1.044,-4.648 0.613,-1.443 1.52,-2.694 2.72,-3.756 1.199,-1.063 2.748,-1.81 4.652,-2.252 1.257,-0.292 2.424,-0.363 3.503,-0.212 1.081,0.151 2.077,0.467 2.993,0.95 0.916,0.482 1.758,1.121 2.526,1.915 0.768,0.794 1.466,1.689 2.096,2.683 1.969,-1.523 3.927,-3.055 5.874,-4.596 -2.517,-3.368 -5.276,-5.639 -8.291,-6.821 -3.014,-1.184 -6.408,-1.325 -10.214,-0.442 -3.059,0.709 -5.602,1.832 -7.638,3.385 -2.039,1.553 -3.64,3.394 -4.806,5.534 -1.167,2.141 -1.889,4.485 -2.161,7.041 -0.271,2.554 -0.144,5.155 0.395,7.801 0.538,2.646 1.483,5.08 2.85,7.299 1.366,2.218 3.063,4.064 5.095,5.53 2.031,1.466 4.353,2.47 6.957,3.003 2.605,0.533 5.421,0.453 8.435,-0.246 C -1.487,14.648 1.741,12.829 4.1,10.169 6.458,7.507 7.61,4.091 7.569,-0.059 5.042,-0.026 2.519,-0.006 0,0"
             style="fill:#ffffff;fill-opacity:1;fill-rule:nonzero;stroke:none"
             id="path132" />
        </g>
      </g>
    </g>
    <text
       xml:space="preserve"
       transform="matrix(1,0,0,-1,367.6021,265.3936)"
       style="font-variant:normal;font-weight:bold;font-stretch:normal;font-size:30px;font-family:Arial;-inkscape-font-specification:Arial-BoldMT;writing-mode:lr-tb;fill:#ffffff;fill-opacity:1;fill-rule:nonzero;stroke:none"
       id="text136"><tspan
         x="0 20.01 40.02 58.349998 76.68 96.690002"
         y="0"
         sodipodi:role="line"
         id="tspan134">VELŽYS</tspan></text>
  </g>
</svg>
